<svg width="192" height="48" viewBox="0 0 192 48" fill="none" xmlns="http://www.w3.org/2000/svg">
<path d="M-0.000111341 47.36L19.7119 1.91998H28.4799L47.4239 47.36H36.7999L33.1519 38.08H14.3999L10.6239 47.36H-0.000111341ZM17.9839 29.376H29.6959L23.9359 14.72L17.9839 29.376ZM49.9369 47.36V-1.52588e-05H59.7289V14.784L59.4089 19.776C61.7556 16.1067 65.2542 14.272 69.9049 14.272C72.8062 14.272 75.2809 14.9333 77.3289 16.256C79.3769 17.5787 80.9342 19.4133 82.0009 21.76C83.0676 24.1067 83.6009 26.7947 83.6009 29.824C83.6009 33.4507 82.8542 36.6293 81.3609 39.36C79.8676 42.0907 77.8622 44.224 75.3449 45.76C72.8276 47.2533 70.0116 48 66.8969 48C64.8062 48 62.9716 47.5947 61.3929 46.784C59.8569 45.9307 58.6622 44.8213 57.8089 43.456L56.9129 47.36H49.9369ZM65.8729 39.488C68.2196 39.488 70.0756 38.6133 71.4409 36.864C72.8062 35.072 73.4889 32.8107 73.4889 30.08C73.4889 27.776 72.9556 25.984 71.8889 24.704C70.8649 23.424 69.4569 22.784 67.6649 22.784C65.4889 22.784 63.6116 23.68 62.0329 25.472C60.4969 27.264 59.7289 29.6107 59.7289 32.512C59.7289 34.6453 60.2836 36.352 61.3929 37.632C62.5022 38.8693 63.9956 39.488 65.8729 39.488ZM105.435 14.272C110.513 14.272 114.481 15.7227 117.339 18.624C120.241 21.5253 121.691 25.4507 121.691 30.4C121.691 33.7707 120.966 36.7787 119.515 39.424C118.065 42.0693 116.017 44.16 113.371 45.696C110.726 47.232 107.611 48 104.027 48C98.9927 48 95.0247 46.5493 92.1234 43.648C89.2647 40.7467 87.8354 36.8427 87.8354 31.936C87.8354 28.5227 88.5607 25.4933 90.0114 22.848C91.4621 20.2027 93.5101 18.112 96.1554 16.576C98.8007 15.04 101.894 14.272 105.435 14.272ZM104.475 39.488C106.651 39.488 108.379 38.6773 109.659 37.056C110.982 35.392 111.643 33.1733 111.643 30.4C111.643 28.0107 111.067 26.1547 109.915 24.832C108.763 23.4667 107.185 22.784 105.179 22.784C102.961 22.784 101.19 23.616 99.8674 25.28C98.5874 26.9013 97.9474 29.0987 97.9474 31.872C97.9474 34.2613 98.5021 36.1387 99.6114 37.504C100.763 38.8267 102.385 39.488 104.475 39.488ZM138.376 48C134.622 48 131.784 46.72 129.864 44.16C127.944 41.6 127.006 38.0373 127.048 33.472L127.176 14.784H136.968L136.84 32.704C136.84 34.624 137.182 36.1387 137.864 37.248C138.547 38.3573 139.614 38.912 141.064 38.912C142.302 38.912 143.432 38.528 144.456 37.76C145.48 36.992 146.376 35.712 147.144 33.92C147.912 32.128 148.51 29.6747 148.936 26.56C149.406 23.4453 149.662 19.52 149.704 14.784H159.176V47.36H149.384L149.832 41.088C148.552 43.3067 146.931 45.0133 144.968 46.208C143.006 47.4027 140.808 48 138.376 48ZM181.343 48C177.332 48 174.154 46.8907 171.807 44.672C169.46 42.4107 168.308 39.4453 168.351 35.776L168.607 22.912H163.231V14.784H168.735L168.799 8.12798H178.527L178.463 14.784H188.639V22.912H178.335L178.143 34.688C178.143 36.224 178.548 37.4187 179.359 38.272C180.17 39.1253 181.386 39.552 183.007 39.552C183.946 39.552 184.842 39.4453 185.695 39.232C186.591 38.976 187.508 38.5067 188.447 37.824L191.263 45.312C189.087 47.104 185.78 48 181.343 48Z" fill="white"/>
</svg>
